<svg width="1575" height="475" viewBox="0 0 1575 475" fill="none" xmlns="http://www.w3.org/2000/svg">
<rect width="1575" height="475" fill="white"/>
<rect width="1575" height="475" rx="48" fill="white"/>
<g clip-path="url(#clip0_677:71)">
<path d="M316.281 316.222C320.708 311.715 321.473 303.578 316.993 299.126C310.101 292.277 298.379 280.495 288.856 270.833L310.001 270.833L312.455 270.808C318.696 270.743 321.731 263.042 317.254 258.628L308.411 249.907C306.278 247.804 303.414 246.827 300.44 246.858L257.884 246.858C248.9 246.858 246.858 249.309 246.858 257.963L246.858 300.472C246.827 303.447 247.804 306.313 249.905 308.447L258.621 317.296C263.032 321.775 270.728 318.738 270.793 312.493L270.818 310.038L270.818 288.8C280.001 297.947 291.884 309.77 299.094 317.034C303.544 321.517 311.776 320.652 316.281 316.222Z" fill="#E01E5A"/>
<path d="M163.719 163.778C159.292 168.285 158.527 176.422 163.007 180.874C169.899 187.723 181.621 199.505 191.144 209.167H169.999L167.545 209.192C161.304 209.257 158.269 216.958 162.746 221.372L171.589 230.093C173.722 232.196 176.586 233.173 179.56 233.142H222.116C231.1 233.142 233.142 230.691 233.142 222.037V179.528C233.173 176.553 232.196 173.687 230.095 171.553L221.379 162.704C216.968 158.225 209.272 161.262 209.207 167.507L209.182 169.962V191.2C199.999 182.053 188.116 170.23 180.906 162.966C176.456 158.483 168.224 159.348 163.719 163.778Z" fill="#34A853"/>
<path d="M163.778 316.281C168.285 320.708 176.422 321.473 180.874 316.993C187.723 310.101 199.505 298.379 209.167 288.856L209.167 310.001L209.192 312.455C209.257 318.696 216.958 321.731 221.372 317.254L230.093 308.411C232.196 306.278 233.173 303.414 233.142 300.44L233.142 257.884C233.142 248.9 230.691 246.858 222.037 246.858L179.528 246.858C176.553 246.827 173.687 247.804 171.553 249.905L162.704 258.621C158.225 263.032 161.262 270.728 167.507 270.793L169.962 270.818L191.2 270.818C182.053 280.001 170.23 291.884 162.966 299.094C158.483 303.544 159.348 311.776 163.778 316.281Z" fill="#05A6F0"/>
<path d="M316.222 163.719C311.715 159.292 303.578 158.527 299.126 163.007C292.277 169.899 280.495 181.621 270.833 191.144L270.833 169.999L270.808 167.545C270.743 161.304 263.042 158.269 258.628 162.746L249.907 171.589C247.804 173.722 246.827 176.586 246.858 179.56L246.858 222.116C246.858 231.1 249.309 233.142 257.963 233.142L300.472 233.142C303.447 233.173 306.313 232.196 308.447 230.095L317.296 221.379C321.775 216.968 318.738 209.272 312.493 209.207L310.038 209.182L288.8 209.182C297.947 199.999 309.77 188.116 317.034 180.906C321.517 176.456 320.652 168.224 316.222 163.719Z" fill="#FFBA08"/>
<path d="M452.731 205.858H482.677V231.898H453.599V320H419.747V231.898H401.736V205.858H419.747V200.65C419.747 187.341 423.653 176.78 431.465 168.968C439.422 161.156 450.561 157.25 464.883 157.25C469.946 157.25 474.72 157.829 479.205 158.986C483.834 159.999 487.668 161.518 490.706 163.543L481.809 188.064C477.903 185.315 473.346 183.941 468.138 183.941C457.867 183.941 452.731 189.583 452.731 200.867V205.858ZM499.603 158.986H533.455V320H499.603V158.986ZM620.575 321.736C608.279 321.736 597.212 319.204 587.374 314.141C577.682 308.933 570.087 301.772 564.589 292.658C559.092 283.544 556.343 273.2 556.343 261.627C556.343 250.054 559.092 239.71 564.589 230.596C570.087 221.482 577.682 214.393 587.374 209.33C597.212 204.122 608.279 201.518 620.575 201.518C632.872 201.518 643.867 204.122 653.559 209.33C663.252 214.393 670.847 221.482 676.344 230.596C681.842 239.71 684.59 250.054 684.59 261.627C684.59 273.2 681.842 283.544 676.344 292.658C670.847 301.772 663.252 308.933 653.559 314.141C643.867 319.204 632.872 321.736 620.575 321.736ZM620.575 293.96C629.255 293.96 636.344 291.067 641.841 285.28C647.483 279.349 650.304 271.464 650.304 261.627C650.304 251.79 647.483 243.978 641.841 238.191C636.344 232.26 629.255 229.294 620.575 229.294C611.895 229.294 604.734 232.26 599.092 238.191C593.45 243.978 590.629 251.79 590.629 261.627C590.629 271.464 593.45 279.349 599.092 285.28C604.734 291.067 611.895 293.96 620.575 293.96ZM891.527 203.254L849.212 320H816.662L790.405 247.522L763.28 320H730.73L688.632 203.254H720.531L748.09 282.242L776.734 203.254H805.378L833.154 282.242L861.581 203.254H891.527ZM1019.89 158.986V320H999.924V301.772C995.294 308.137 989.435 312.984 982.347 316.311C975.258 319.638 967.446 321.302 958.911 321.302C947.771 321.302 937.789 318.843 928.965 313.924C920.14 309.005 913.196 302.134 908.133 293.309C903.214 284.34 900.755 274.068 900.755 262.495C900.755 250.922 903.214 240.723 908.133 231.898C913.196 223.073 920.14 216.202 928.965 211.283C937.789 206.364 947.771 203.905 958.911 203.905C967.157 203.905 974.752 205.496 981.696 208.679C988.64 211.717 994.426 216.274 999.056 222.35V158.986H1019.89ZM960.647 303.074C967.88 303.074 974.462 301.41 980.394 298.083C986.325 294.611 990.954 289.837 994.282 283.761C997.609 277.54 999.273 270.452 999.273 262.495C999.273 254.538 997.609 247.522 994.282 241.446C990.954 235.225 986.325 230.451 980.394 227.124C974.462 223.797 967.88 222.133 960.647 222.133C953.269 222.133 946.614 223.797 940.683 227.124C934.896 230.451 930.267 235.225 926.795 241.446C923.467 247.522 921.804 254.538 921.804 262.495C921.804 270.452 923.467 277.54 926.795 283.761C930.267 289.837 934.896 294.611 940.683 298.083C946.614 301.41 953.269 303.074 960.647 303.074ZM1101.18 203.905C1117.1 203.905 1129.25 207.811 1137.64 215.623C1146.18 223.435 1150.44 235.081 1150.44 250.56V320H1130.7V304.81C1127.22 310.163 1122.23 314.286 1115.72 317.179C1109.36 319.928 1101.76 321.302 1092.94 321.302C1080.06 321.302 1069.72 318.192 1061.91 311.971C1054.24 305.75 1050.41 297.577 1050.41 287.45C1050.41 277.323 1054.1 269.222 1061.47 263.146C1068.85 256.925 1080.57 253.815 1096.63 253.815H1129.61V249.692C1129.61 240.723 1127.01 233.851 1121.8 229.077C1116.59 224.303 1108.92 221.916 1098.8 221.916C1092 221.916 1085.34 223.073 1078.83 225.388C1072.32 227.558 1066.83 230.524 1062.34 234.285L1053.66 218.661C1059.59 213.887 1066.68 210.27 1074.93 207.811C1083.17 205.207 1091.93 203.905 1101.18 203.905ZM1096.41 305.244C1104.37 305.244 1111.24 303.508 1117.03 300.036C1122.81 296.419 1127.01 291.356 1129.61 284.846V268.788H1097.5C1079.85 268.788 1071.02 274.719 1071.02 286.582C1071.02 292.369 1073.26 296.926 1077.75 300.253C1082.23 303.58 1088.45 305.244 1096.41 305.244ZM1221.98 321.302C1212.58 321.302 1203.53 320.072 1194.85 317.613C1186.17 315.009 1179.37 311.754 1174.46 307.848L1183.14 291.356C1188.2 294.973 1194.35 297.866 1201.58 300.036C1208.81 302.206 1216.12 303.291 1223.5 303.291C1241.73 303.291 1250.84 298.083 1250.84 287.667C1250.84 284.195 1249.61 281.446 1247.15 279.421C1244.69 277.396 1241.58 275.949 1237.82 275.081C1234.2 274.068 1229 272.983 1222.2 271.826C1212.94 270.379 1205.34 268.716 1199.41 266.835C1193.62 264.954 1188.63 261.772 1184.44 257.287C1180.24 252.802 1178.15 246.509 1178.15 238.408C1178.15 227.992 1182.49 219.674 1191.17 213.453C1199.85 207.088 1211.49 203.905 1226.1 203.905C1233.77 203.905 1241.44 204.845 1249.1 206.726C1256.77 208.607 1263.06 211.138 1267.98 214.321L1259.09 230.813C1249.68 224.737 1238.62 221.699 1225.89 221.699C1217.06 221.699 1210.33 223.146 1205.7 226.039C1201.07 228.932 1198.76 232.766 1198.76 237.54C1198.76 241.301 1200.06 244.267 1202.67 246.437C1205.27 248.607 1208.45 250.198 1212.21 251.211C1216.12 252.224 1221.55 253.381 1228.49 254.683C1237.75 256.274 1245.2 258.01 1250.84 259.891C1256.63 261.627 1261.55 264.665 1265.6 269.005C1269.65 273.345 1271.67 279.421 1271.67 287.233C1271.67 297.649 1267.19 305.967 1258.22 312.188C1249.39 318.264 1237.31 321.302 1221.98 321.302ZM1359.12 203.905C1373.73 203.905 1385.3 208.173 1393.84 216.708C1402.52 225.099 1406.86 237.468 1406.86 253.815V320H1386.03V256.202C1386.03 245.063 1383.35 236.672 1378 231.03C1372.64 225.388 1364.98 222.567 1354.99 222.567C1343.71 222.567 1334.81 225.894 1328.3 232.549C1321.79 239.059 1318.54 248.462 1318.54 260.759V320H1297.71V158.986H1318.54V221.265C1322.88 215.768 1328.52 211.5 1335.46 208.462C1342.55 205.424 1350.44 203.905 1359.12 203.905Z" fill="#37352F"/>
</g>
<defs>
<clipPath id="clip0_677:71">
<rect width="1250" height="320" fill="white" transform="translate(160 80)"/>
</clipPath>
</defs>
</svg>
