<svg width="320" height="320" viewBox="0 0 320 320" fill="none" xmlns="http://www.w3.org/2000/svg">
<path d="M236.281 236.222C240.708 231.715 241.473 223.578 236.993 219.126C230.101 212.277 218.379 200.495 208.856 190.833L230.001 190.833L232.455 190.808C238.696 190.743 241.731 183.042 237.254 178.628L228.411 169.907C226.278 167.804 223.414 166.827 220.44 166.858L177.884 166.858C168.9 166.858 166.858 169.309 166.858 177.963L166.858 220.472C166.827 223.447 167.804 226.313 169.905 228.447L178.621 237.296C183.032 241.775 190.728 238.738 190.793 232.493L190.818 230.038L190.818 208.8C200.001 217.947 211.884 229.77 219.094 237.034C223.544 241.517 231.776 240.652 236.281 236.222Z" fill="#E01E5A"/>
<path d="M83.7192 83.7776C79.2924 88.2852 78.5265 96.4217 83.0071 100.874C89.899 107.723 101.621 119.505 111.144 129.167H89.9988L87.5455 129.192C81.3044 129.257 78.2692 136.958 82.7456 141.372L91.5895 150.093C93.7219 152.196 96.5864 153.173 99.5597 153.142H142.116C151.1 153.142 153.142 150.691 153.142 142.037V99.5284C153.173 96.5533 152.196 93.6871 150.095 91.5534L141.379 82.7041C136.968 78.225 129.272 81.2621 129.207 87.5069L129.182 89.9617V111.2C119.999 102.053 108.116 90.2297 100.906 82.9658C96.4563 78.4825 88.224 79.3481 83.7192 83.7776Z" fill="#34A853"/>
<path d="M83.7776 236.281C88.2852 240.708 96.4217 241.473 100.874 236.993C107.723 230.101 119.505 218.379 129.167 208.856L129.167 230.001L129.192 232.455C129.257 238.696 136.958 241.731 141.372 237.254L150.093 228.411C152.196 226.278 153.173 223.414 153.142 220.44L153.142 177.884C153.142 168.9 150.691 166.858 142.037 166.858L99.5284 166.858C96.5533 166.827 93.6871 167.804 91.5534 169.905L82.7041 178.621C78.225 183.032 81.2621 190.728 87.5069 190.793L89.9617 190.818L111.2 190.818C102.053 200.001 90.2297 211.884 82.9658 219.094C78.4825 223.544 79.3481 231.776 83.7776 236.281Z" fill="#05A6F0"/>
<path d="M236.222 83.7192C231.715 79.2924 223.578 78.5265 219.126 83.0071C212.277 89.899 200.495 101.621 190.833 111.144L190.833 89.9988L190.808 87.5455C190.743 81.3044 183.042 78.2692 178.628 82.7456L169.907 91.5895C167.804 93.7219 166.827 96.5864 166.858 99.5597L166.858 142.116C166.858 151.1 169.309 153.142 177.963 153.142L220.472 153.142C223.447 153.173 226.313 152.196 228.447 150.095L237.296 141.379C241.775 136.968 238.738 129.272 232.493 129.207L230.038 129.182L208.8 129.182C217.947 119.999 229.77 108.116 237.034 100.906C241.517 96.4563 240.652 88.224 236.222 83.7192Z" fill="#FFBA08"/>
</svg>
