<svg width="1500" height="450" viewBox="0 0 1500 450" fill="none" xmlns="http://www.w3.org/2000/svg">
<g clip-path="url(#clip0_677:71)">
  <rect width="1500" height="450" rx="48" fill="white"/>
  <rect width="1575" height="475" rx="48" fill="white"/>
<g clip-path="url(#clip1_677:71)">
  <path d="M281.281 301.222C285.708 296.715 286.473 288.578 281.993 284.126C275.101 277.277 263.379 265.495 253.856 255.833L275.001 255.833L277.455 255.808C283.696 255.743 286.731 248.042 282.254 243.628L273.411 234.907C271.278 232.804 268.414 231.827 265.44 231.858L222.884 231.858C213.9 231.858 211.858 234.309 211.858 242.963L211.858 285.472C211.827 288.447 212.804 291.313 214.905 293.447L223.621 302.296C228.032 306.775 235.728 303.738 235.793 297.493L235.818 295.038L235.818 273.8C245.001 282.947 256.884 294.77 264.094 302.034C268.544 306.517 276.776 305.652 281.281 301.222Z" fill="#E01E5A"/>
  <path d="M128.719 148.778C124.292 153.285 123.527 161.422 128.007 165.874C134.899 172.723 146.621 184.505 156.144 194.167H134.999L132.545 194.192C126.304 194.257 123.269 201.958 127.746 206.372L136.589 215.093C138.722 217.196 141.586 218.173 144.56 218.142H187.116C196.1 218.142 198.142 215.691 198.142 207.037V164.528C198.173 161.553 197.196 158.687 195.095 156.553L186.379 147.704C181.968 143.225 174.272 146.262 174.207 152.507L174.182 154.962V176.2C164.999 167.053 153.116 155.23 145.906 147.966C141.456 143.483 133.224 144.348 128.719 148.778Z" fill="#34A853"/>
  <path d="M128.778 301.281C133.285 305.708 141.422 306.473 145.874 301.993C152.723 295.101 164.505 283.379 174.167 273.856L174.167 295.001L174.192 297.455C174.257 303.696 181.958 306.731 186.372 302.254L195.093 293.411C197.196 291.278 198.173 288.414 198.142 285.44L198.142 242.884C198.142 233.9 195.691 231.858 187.037 231.858L144.528 231.858C141.553 231.827 138.687 232.804 136.553 234.905L127.704 243.621C123.225 248.032 126.262 255.728 132.507 255.793L134.962 255.818L156.2 255.818C147.053 265.001 135.23 276.884 127.966 284.094C123.483 288.544 124.348 296.776 128.778 301.281Z" fill="#05A6F0"/>
  <path d="M281.222 148.719C276.715 144.292 268.578 143.527 264.126 148.007C257.277 154.899 245.495 166.621 235.833 176.144L235.833 154.999L235.808 152.545C235.743 146.304 228.042 143.269 223.628 147.746L214.907 156.589C212.804 158.722 211.827 161.586 211.858 164.56L211.858 207.116C211.858 216.1 214.309 218.142 222.963 218.142L265.472 218.142C268.447 218.173 271.313 217.196 273.447 215.095L282.296 206.379C286.775 201.968 283.738 194.272 277.493 194.207L275.038 194.182L253.8 194.182C262.947 184.999 274.77 173.116 282.034 165.906C286.517 161.456 285.652 153.224 281.222 148.719Z" fill="#FFBA08"/>
  <path d="M417.731 190.858H447.677V216.898H418.599V305H384.747V216.898H366.736V190.858H384.747V185.65C384.747 172.341 388.653 161.78 396.465 153.968C404.422 146.156 415.561 142.25 429.883 142.25C434.946 142.25 439.72 142.829 444.205 143.986C448.834 144.999 452.668 146.518 455.706 148.543L446.809 173.064C442.903 170.315 438.346 168.941 433.138 168.941C422.867 168.941 417.731 174.583 417.731 185.867V190.858ZM464.603 143.986H498.455V305H464.603V143.986ZM585.575 306.736C573.279 306.736 562.212 304.204 552.374 299.141C542.682 293.933 535.087 286.772 529.589 277.658C524.092 268.544 521.343 258.2 521.343 246.627C521.343 235.054 524.092 224.71 529.589 215.596C535.087 206.482 542.682 199.393 552.374 194.33C562.212 189.122 573.279 186.518 585.575 186.518C597.872 186.518 608.867 189.122 618.559 194.33C628.252 199.393 635.847 206.482 641.344 215.596C646.842 224.71 649.59 235.054 649.59 246.627C649.59 258.2 646.842 268.544 641.344 277.658C635.847 286.772 628.252 293.933 618.559 299.141C608.867 304.204 597.872 306.736 585.575 306.736ZM585.575 278.96C594.255 278.96 601.344 276.067 606.841 270.28C612.483 264.349 615.304 256.464 615.304 246.627C615.304 236.79 612.483 228.978 606.841 223.191C601.344 217.26 594.255 214.294 585.575 214.294C576.895 214.294 569.734 217.26 564.092 223.191C558.45 228.978 555.629 236.79 555.629 246.627C555.629 256.464 558.45 264.349 564.092 270.28C569.734 276.067 576.895 278.96 585.575 278.96ZM856.527 188.254L814.212 305H781.662L755.405 232.522L728.28 305H695.73L653.632 188.254H685.531L713.09 267.242L741.734 188.254H770.378L798.154 267.242L826.581 188.254H856.527ZM984.888 143.986V305H964.924V286.772C960.294 293.137 954.435 297.984 947.347 301.311C940.258 304.638 932.446 306.302 923.911 306.302C912.771 306.302 902.789 303.843 893.965 298.924C885.14 294.005 878.196 287.134 873.133 278.309C868.214 269.34 865.755 259.068 865.755 247.495C865.755 235.922 868.214 225.723 873.133 216.898C878.196 208.073 885.14 201.202 893.965 196.283C902.789 191.364 912.771 188.905 923.911 188.905C932.157 188.905 939.752 190.496 946.696 193.679C953.64 196.717 959.426 201.274 964.056 207.35V143.986H984.888ZM925.647 288.074C932.88 288.074 939.462 286.41 945.394 283.083C951.325 279.611 955.954 274.837 959.282 268.761C962.609 262.54 964.273 255.452 964.273 247.495C964.273 239.538 962.609 232.522 959.282 226.446C955.954 220.225 951.325 215.451 945.394 212.124C939.462 208.797 932.88 207.133 925.647 207.133C918.269 207.133 911.614 208.797 905.683 212.124C899.896 215.451 895.267 220.225 891.795 226.446C888.467 232.522 886.804 239.538 886.804 247.495C886.804 255.452 888.467 262.54 891.795 268.761C895.267 274.837 899.896 279.611 905.683 283.083C911.614 286.41 918.269 288.074 925.647 288.074ZM1066.18 188.905C1082.1 188.905 1094.25 192.811 1102.64 200.623C1111.18 208.435 1115.44 220.081 1115.44 235.56V305H1095.7V289.81C1092.22 295.163 1087.23 299.286 1080.72 302.179C1074.36 304.928 1066.76 306.302 1057.94 306.302C1045.06 306.302 1034.72 303.192 1026.91 296.971C1019.24 290.75 1015.41 282.577 1015.41 272.45C1015.41 262.323 1019.1 254.222 1026.47 248.146C1033.85 241.925 1045.57 238.815 1061.63 238.815H1094.61V234.692C1094.61 225.723 1092.01 218.851 1086.8 214.077C1081.59 209.303 1073.92 206.916 1063.8 206.916C1057 206.916 1050.34 208.073 1043.83 210.388C1037.32 212.558 1031.83 215.524 1027.34 219.285L1018.66 203.661C1024.59 198.887 1031.68 195.27 1039.93 192.811C1048.17 190.207 1056.93 188.905 1066.18 188.905ZM1061.41 290.244C1069.37 290.244 1076.24 288.508 1082.03 285.036C1087.81 281.419 1092.01 276.356 1094.61 269.846V253.788H1062.5C1044.85 253.788 1036.02 259.719 1036.02 271.582C1036.02 277.369 1038.26 281.926 1042.75 285.253C1047.23 288.58 1053.45 290.244 1061.41 290.244ZM1186.98 306.302C1177.58 306.302 1168.53 305.072 1159.85 302.613C1151.17 300.009 1144.37 296.754 1139.46 292.848L1148.14 276.356C1153.2 279.973 1159.35 282.866 1166.58 285.036C1173.81 287.206 1181.12 288.291 1188.5 288.291C1206.73 288.291 1215.84 283.083 1215.84 272.667C1215.84 269.195 1214.61 266.446 1212.15 264.421C1209.69 262.396 1206.58 260.949 1202.82 260.081C1199.2 259.068 1194 257.983 1187.2 256.826C1177.94 255.379 1170.34 253.716 1164.41 251.835C1158.62 249.954 1153.63 246.772 1149.44 242.287C1145.24 237.802 1143.15 231.509 1143.15 223.408C1143.15 212.992 1147.49 204.674 1156.17 198.453C1164.85 192.088 1176.49 188.905 1191.1 188.905C1198.77 188.905 1206.44 189.845 1214.1 191.726C1221.77 193.607 1228.06 196.138 1232.98 199.321L1224.09 215.813C1214.68 209.737 1203.62 206.699 1190.89 206.699C1182.06 206.699 1175.33 208.146 1170.7 211.039C1166.07 213.932 1163.76 217.766 1163.76 222.54C1163.76 226.301 1165.06 229.267 1167.67 231.437C1170.27 233.607 1173.45 235.198 1177.21 236.211C1181.12 237.224 1186.55 238.381 1193.49 239.683C1202.75 241.274 1210.2 243.01 1215.84 244.891C1221.63 246.627 1226.55 249.665 1230.6 254.005C1234.65 258.345 1236.67 264.421 1236.67 272.233C1236.67 282.649 1232.19 290.967 1223.22 297.188C1214.39 303.264 1202.31 306.302 1186.98 306.302ZM1324.12 188.905C1338.73 188.905 1350.3 193.173 1358.84 201.708C1367.52 210.099 1371.86 222.468 1371.86 238.815V305H1351.03V241.202C1351.03 230.063 1348.35 221.672 1343 216.03C1337.64 210.388 1329.98 207.567 1319.99 207.567C1308.71 207.567 1299.81 210.894 1293.3 217.549C1286.79 224.059 1283.54 233.462 1283.54 245.759V305H1262.71V143.986H1283.54V206.265C1287.88 200.768 1293.52 196.5 1300.46 193.462C1307.55 190.424 1315.44 188.905 1324.12 188.905Z" fill="#37352F"/>
</g>
</g>
<defs>
  <clipPath id="clip0_677:71">
    <rect width="1500" height="450" rx="48" fill="white"/>
  </clipPath>
  <clipPath id="clip1_677:71">
    <rect width="1250" height="320" fill="white" transform="translate(125 65)"/>
  </clipPath>
</defs>
</svg>
