<svg width="1410" height="320" viewBox="0 0 1410 320" fill="none" xmlns="http://www.w3.org/2000/svg">
<g clip-path="url(#clip0)">
<path d="M236.281 236.222C240.708 231.715 241.473 223.578 236.993 219.126C230.101 212.277 218.379 200.495 208.856 190.833L230.001 190.833L232.455 190.808C238.696 190.743 241.731 183.042 237.254 178.628L228.411 169.907C226.278 167.804 223.414 166.827 220.44 166.858L177.884 166.858C168.9 166.858 166.858 169.309 166.858 177.963L166.858 220.472C166.827 223.447 167.804 226.313 169.905 228.447L178.621 237.296C183.032 241.775 190.728 238.738 190.793 232.493L190.818 230.038L190.818 208.8C200.001 217.947 211.884 229.77 219.094 237.034C223.544 241.517 231.776 240.652 236.281 236.222Z" fill="#E01E5A"/>
<path d="M83.7192 83.7776C79.2924 88.2852 78.5265 96.4217 83.0071 100.874C89.899 107.723 101.621 119.505 111.144 129.167H89.9988L87.5455 129.192C81.3044 129.257 78.2692 136.958 82.7456 141.372L91.5895 150.093C93.7219 152.196 96.5864 153.173 99.5597 153.142H142.116C151.1 153.142 153.142 150.691 153.142 142.037V99.5284C153.173 96.5533 152.196 93.6871 150.095 91.5534L141.379 82.7041C136.968 78.225 129.272 81.2621 129.207 87.5069L129.182 89.9617V111.2C119.999 102.053 108.116 90.2297 100.906 82.9658C96.4563 78.4825 88.224 79.3481 83.7192 83.7776Z" fill="#34A853"/>
<path d="M83.7776 236.281C88.2852 240.708 96.4217 241.473 100.874 236.993C107.723 230.101 119.505 218.379 129.167 208.856L129.167 230.001L129.192 232.455C129.257 238.696 136.958 241.731 141.372 237.254L150.093 228.411C152.196 226.278 153.173 223.414 153.142 220.44L153.142 177.884C153.142 168.9 150.691 166.858 142.037 166.858L99.5284 166.858C96.5533 166.827 93.6871 167.804 91.5534 169.905L82.7041 178.621C78.225 183.032 81.2621 190.728 87.5069 190.793L89.9617 190.818L111.2 190.818C102.053 200.001 90.2297 211.884 82.9658 219.094C78.4825 223.544 79.3481 231.776 83.7776 236.281Z" fill="#05A6F0"/>
<path d="M236.222 83.7192C231.715 79.2924 223.578 78.5265 219.126 83.0071C212.277 89.899 200.495 101.621 190.833 111.144L190.833 89.9988L190.808 87.5455C190.743 81.3044 183.042 78.2692 178.628 82.7456L169.907 91.5895C167.804 93.7219 166.827 96.5864 166.858 99.5597L166.858 142.116C166.858 151.1 169.309 153.142 177.963 153.142L220.472 153.142C223.447 153.173 226.313 152.196 228.447 150.095L237.296 141.379C241.775 136.968 238.738 129.272 232.493 129.207L230.038 129.182L208.8 129.182C217.947 119.999 229.77 108.116 237.034 100.906C241.517 96.4563 240.652 88.224 236.222 83.7192Z" fill="#FFBA08"/>
<path d="M372.731 125.858H402.677V151.898H373.599V240H339.747V151.898H321.736V125.858H339.747V120.65C339.747 107.341 343.653 96.78 351.465 88.968C359.422 81.156 370.561 77.25 384.883 77.25C389.946 77.25 394.72 77.8287 399.205 78.986C403.834 79.9987 407.668 81.5177 410.706 83.543L401.809 108.064C397.903 105.315 393.346 103.941 388.138 103.941C377.867 103.941 372.731 109.583 372.731 120.867V125.858ZM419.603 78.986H453.455V240H419.603V78.986ZM540.575 241.736C528.279 241.736 517.212 239.204 507.374 234.141C497.682 228.933 490.087 221.772 484.589 212.658C479.092 203.544 476.343 193.2 476.343 181.627C476.343 170.054 479.092 159.71 484.589 150.596C490.087 141.482 497.682 134.393 507.374 129.33C517.212 124.122 528.279 121.518 540.575 121.518C552.872 121.518 563.867 124.122 573.559 129.33C583.252 134.393 590.847 141.482 596.344 150.596C601.842 159.71 604.59 170.054 604.59 181.627C604.59 193.2 601.842 203.544 596.344 212.658C590.847 221.772 583.252 228.933 573.559 234.141C563.867 239.204 552.872 241.736 540.575 241.736ZM540.575 213.96C549.255 213.96 556.344 211.067 561.841 205.28C567.483 199.349 570.304 191.464 570.304 181.627C570.304 171.79 567.483 163.978 561.841 158.191C556.344 152.26 549.255 149.294 540.575 149.294C531.895 149.294 524.734 152.26 519.092 158.191C513.45 163.978 510.629 171.79 510.629 181.627C510.629 191.464 513.45 199.349 519.092 205.28C524.734 211.067 531.895 213.96 540.575 213.96ZM811.527 123.254L769.212 240H736.662L710.405 167.522L683.28 240H650.73L608.632 123.254H640.531L668.09 202.242L696.734 123.254H725.378L753.154 202.242L781.581 123.254H811.527ZM939.888 78.986V240H919.924V221.772C915.294 228.137 909.435 232.984 902.347 236.311C895.258 239.638 887.446 241.302 878.911 241.302C867.771 241.302 857.789 238.843 848.965 233.924C840.14 229.005 833.196 222.134 828.133 213.309C823.214 204.34 820.755 194.068 820.755 182.495C820.755 170.922 823.214 160.723 828.133 151.898C833.196 143.073 840.14 136.202 848.965 131.283C857.789 126.364 867.771 123.905 878.911 123.905C887.157 123.905 894.752 125.496 901.696 128.679C908.64 131.717 914.426 136.274 919.056 142.35V78.986H939.888ZM880.647 223.074C887.88 223.074 894.462 221.41 900.394 218.083C906.325 214.611 910.954 209.837 914.282 203.761C917.609 197.54 919.273 190.452 919.273 182.495C919.273 174.538 917.609 167.522 914.282 161.446C910.954 155.225 906.325 150.451 900.394 147.124C894.462 143.797 887.88 142.133 880.647 142.133C873.269 142.133 866.614 143.797 860.683 147.124C854.896 150.451 850.267 155.225 846.795 161.446C843.467 167.522 841.804 174.538 841.804 182.495C841.804 190.452 843.467 197.54 846.795 203.761C850.267 209.837 854.896 214.611 860.683 218.083C866.614 221.41 873.269 223.074 880.647 223.074ZM1021.18 123.905C1037.1 123.905 1049.25 127.811 1057.64 135.623C1066.18 143.435 1070.44 155.081 1070.44 170.56V240H1050.7V224.81C1047.22 230.163 1042.23 234.286 1035.72 237.179C1029.36 239.928 1021.76 241.302 1012.94 241.302C1000.06 241.302 989.72 238.192 981.908 231.971C974.24 225.75 970.407 217.577 970.407 207.45C970.407 197.323 974.096 189.222 981.474 183.146C988.852 176.925 1000.57 173.815 1016.63 173.815H1049.61V169.692C1049.61 160.723 1047.01 153.851 1041.8 149.077C1036.59 144.303 1028.92 141.916 1018.8 141.916C1012 141.916 1005.34 143.073 998.834 145.388C992.324 147.558 986.826 150.524 982.342 154.285L973.662 138.661C979.593 133.887 986.682 130.27 994.928 127.811C1003.17 125.207 1011.93 123.905 1021.18 123.905ZM1016.41 225.244C1024.37 225.244 1031.24 223.508 1037.03 220.036C1042.81 216.419 1047.01 211.356 1049.61 204.846V188.788H1017.5C999.846 188.788 991.022 194.719 991.022 206.582C991.022 212.369 993.264 216.926 997.749 220.253C1002.23 223.58 1008.45 225.244 1016.41 225.244ZM1141.98 241.302C1132.58 241.302 1123.53 240.072 1114.85 237.613C1106.17 235.009 1099.37 231.754 1094.46 227.848L1103.14 211.356C1108.2 214.973 1114.35 217.866 1121.58 220.036C1128.81 222.206 1136.12 223.291 1143.5 223.291C1161.73 223.291 1170.84 218.083 1170.84 207.667C1170.84 204.195 1169.61 201.446 1167.15 199.421C1164.69 197.396 1161.58 195.949 1157.82 195.081C1154.2 194.068 1149 192.983 1142.2 191.826C1132.94 190.379 1125.34 188.716 1119.41 186.835C1113.62 184.954 1108.63 181.772 1104.44 177.287C1100.24 172.802 1098.15 166.509 1098.15 158.408C1098.15 147.992 1102.49 139.674 1111.17 133.453C1119.85 127.088 1131.49 123.905 1146.1 123.905C1153.77 123.905 1161.44 124.845 1169.1 126.726C1176.77 128.607 1183.06 131.138 1187.98 134.321L1179.09 150.813C1169.68 144.737 1158.62 141.699 1145.89 141.699C1137.06 141.699 1130.33 143.146 1125.7 146.039C1121.07 148.932 1118.76 152.766 1118.76 157.54C1118.76 161.301 1120.06 164.267 1122.67 166.437C1125.27 168.607 1128.45 170.198 1132.21 171.211C1136.12 172.224 1141.55 173.381 1148.49 174.683C1157.75 176.274 1165.2 178.01 1170.84 179.891C1176.63 181.627 1181.55 184.665 1185.6 189.005C1189.65 193.345 1191.67 199.421 1191.67 207.233C1191.67 217.649 1187.19 225.967 1178.22 232.188C1169.39 238.264 1157.31 241.302 1141.98 241.302ZM1279.12 123.905C1293.73 123.905 1305.3 128.173 1313.84 136.708C1322.52 145.099 1326.86 157.468 1326.86 173.815V240H1306.03V176.202C1306.03 165.063 1303.35 156.672 1298 151.03C1292.64 145.388 1284.98 142.567 1274.99 142.567C1263.71 142.567 1254.81 145.894 1248.3 152.549C1241.79 159.059 1238.54 168.462 1238.54 180.759V240H1217.71V78.986H1238.54V141.265C1242.88 135.768 1248.52 131.5 1255.46 128.462C1262.55 125.424 1270.44 123.905 1279.12 123.905Z" fill="#37352F"/>
</g>
<defs>
<clipPath id="clip0">
<rect width="1250" height="320" fill="white" transform="translate(80)"/>
</clipPath>
</defs>
</svg>
