<svg width="160" height="160" viewBox="0 0 160 160" fill="none" xmlns="http://www.w3.org/2000/svg">
<path d="M156.281 156.222C160.708 151.715 161.473 143.578 156.993 139.126C150.101 132.277 138.379 120.495 128.856 110.833L150.001 110.833L152.455 110.808C158.696 110.743 161.731 103.042 157.254 98.6278L148.411 89.9069C146.278 87.8041 143.414 86.827 140.44 86.8578L97.884 86.8578C88.8997 86.8578 86.8579 89.3091 86.8579 97.9632L86.8579 140.472C86.827 143.447 87.8035 146.313 89.9051 148.447L98.6206 157.296C103.032 161.775 110.728 158.738 110.793 152.493L110.818 150.038L110.818 128.8C120.001 137.947 131.884 149.77 139.094 157.034C143.544 161.517 151.776 160.652 156.281 156.222Z" fill="#E01E5A"/>
<path d="M3.71919 3.77765C-0.707631 8.28523 -1.47346 16.4217 3.00709 20.874C9.89902 27.7231 21.6215 39.5055 31.1436 49.1668H9.99878L7.54549 49.1923C1.30444 49.2572 -1.73081 56.9584 2.7456 61.3722L11.5895 70.0931C13.7219 72.1959 16.5864 73.173 19.5597 73.1422H62.116C71.1003 73.1422 73.1422 70.6909 73.1422 62.0368V19.5284C73.173 16.5533 72.1965 13.6871 70.0949 11.5534L61.3794 2.70412C56.9683 -1.77501 49.2719 1.26209 49.2071 7.50693L49.1816 9.96171V31.2004C39.9991 22.053 28.1159 10.2297 20.9059 2.96577C16.4563 -1.5175 8.22403 -0.651863 3.71919 3.77765Z" fill="#34A853"/>
<path d="M3.77765 156.281C8.28523 160.708 16.4217 161.473 20.874 156.993C27.7231 150.101 39.5055 138.379 49.1668 128.856L49.1668 150.001L49.1923 152.455C49.2572 158.696 56.9584 161.731 61.3722 157.254L70.0931 148.411C72.1959 146.278 73.173 143.414 73.1421 140.44L73.1421 97.884C73.1421 88.8997 70.6909 86.8578 62.0368 86.8578L19.5284 86.8578C16.5533 86.827 13.6871 87.8035 11.5534 89.9051L2.70412 98.6206C-1.77501 103.032 1.26208 110.728 7.50693 110.793L9.96171 110.818L31.2004 110.818C22.053 120.001 10.2297 131.884 2.96577 139.094C-1.5175 143.544 -0.651864 151.776 3.77765 156.281Z" fill="#05A6F0"/>
<path d="M156.222 3.71919C151.715 -0.707631 143.578 -1.47346 139.126 3.00709C132.277 9.89902 120.495 21.6215 110.833 31.1436L110.833 9.99878L110.808 7.54549C110.743 1.30444 103.042 -1.73081 98.6278 2.7456L89.9069 11.5895C87.8041 13.7219 86.827 16.5864 86.8578 19.5597L86.8578 62.116C86.8578 71.1003 89.3091 73.1421 97.9632 73.1421L140.472 73.1421C143.447 73.173 146.313 72.1965 148.447 70.0949L157.296 61.3794C161.775 56.9683 158.738 49.2719 152.493 49.2071L150.038 49.1816L128.8 49.1816C137.947 39.999 149.77 28.1159 157.034 20.9059C161.517 16.4563 160.652 8.22403 156.222 3.71919Z" fill="#FFBA08"/>
</svg>
